# xmcd
# 
# Track frame offsets:
#     150
#     11791
#     26342
#     44378
#     59138
#     76960
#     94941
#     108708
#     123382
#     138818
#     156682
#     171989
# 
# Disc length: 2494
# 
# Revision: 0
# Processed by: cddbd v1.5.2PL0 Copyright (c) Steve Scherf et al.
# Submitted via: fre:ac v1.0.17
# 
DISCID=a809bc0c
DTITLE=Marshall Dane - One Of These Days
DYEAR=2013
DGENRE=Country
TTITLE0=Take You Home To Mama
TTITLE1=I'll Be Your Whiskey
TTITLE2=Till I Get To You
TTITLE3=Stay Up Late
TTITLE4=Not Today
TTITLE5=One Of These Days
TTITLE6=Living It Up
TTITLE7=How Do I Get There From Her
TTITLE8=Alcohol Abuse
TTITLE9=Why Can't I Leave
TTITLE10=Work It Out
TTITLE11=Forever Girl
EXTD=
EXTT0=
EXTT1=
EXTT2=
EXTT3=
EXTT4=
EXTT5=
EXTT6=
EXTT7=
EXTT8=
EXTT9=
EXTT10=
EXTT11=
PLAYORDER=
